<svg width="34" height="47" viewBox="0 0 34 47" fill="none" xmlns="http://www.w3.org/2000/svg">
<path d="M0.940268 9.89371C-0.0557742 8.8589 -0.0243458 7.21256 1.01047 6.21652C2.04528 5.22048 3.69162 5.25191 4.68766 6.28672L9.78163 11.579C10.7777 12.6138 10.7462 14.2601 9.71144 15.2562C8.67662 16.2522 7.03029 16.2208 6.03424 15.186L0.940268 9.89371Z" fill="white"/>
<path d="M24.057 35.0332C23.0609 33.9984 23.0924 32.3521 24.1272 31.356C25.162 30.36 26.8083 30.3914 27.8044 31.4262L32.8983 36.7185C33.8944 37.7533 33.8629 39.3997 32.8281 40.3957C31.7933 41.3917 30.147 41.3603 29.1509 40.3255L24.057 35.0332Z" fill="white"/>
<path d="M0.0034708 8.1695C0.0034708 6.7332 1.16782 5.56886 2.60411 5.56886C4.04041 5.56886 5.20475 6.73321 5.20475 8.1695V43.7116C5.20475 45.1479 4.04041 46.3122 2.60411 46.3122C1.16782 46.3122 0.0034708 45.1479 0.0034708 43.7116V8.1695Z" fill="white"/>
<path d="M28.6104 2.96822C28.6104 1.53193 29.7747 0.367581 31.211 0.367581C32.6473 0.367581 33.8117 1.53193 33.8117 2.96822V38.5103C33.8117 39.9466 32.6473 41.111 31.211 41.111C29.7747 41.111 28.6104 39.9466 28.6104 38.5103V2.96822Z" fill="white"/>
<path d="M20.5234 22.2389C21.539 21.2233 23.1857 21.2233 24.2013 22.2389C25.2169 23.2545 25.2169 24.9012 24.2013 25.9168L4.43957 45.6785C3.42396 46.6941 1.77732 46.6941 0.76171 45.6785C-0.253903 44.6629 -0.253904 43.0162 0.76171 42.0006L20.5234 22.2389Z" fill="white"/>
<path d="M29.4062 0.761709C30.4219 -0.253904 32.0685 -0.253902 33.0841 0.761711C34.0997 1.77732 34.0997 3.42396 33.0841 4.43957L13.3224 24.2013C12.3068 25.2169 10.6601 25.2169 9.64452 24.2013C8.62891 23.1857 8.62891 21.539 9.64452 20.5234L29.4062 0.761709Z" fill="white"/>
</svg>
